<svg width="29" height="25" viewBox="0 0 29 25" fill="none" xmlns="http://www.w3.org/2000/svg">
<g clip-path="url(#clip0)">
<path d="M23.8996 17.6392C20.7963 22.8052 13.7016 24.6967 8.05124 21.8594C2.40087 19.0221 0.332002 12.5357 3.43531 7.36976C6.53862 2.20381 13.6333 0.312299 19.2837 3.14956C21.2354 4.12208 22.8359 5.58532 23.8996 7.36976H25.8904V6.91473L25.783 6.71844C22.2894 0.597809 14.0334 -1.7755 7.33884 1.42757C0.654043 4.62172 -1.94181 12.1699 1.56161 18.2905C5.05528 24.4022 13.3112 26.7755 20.0058 23.5725C22.4748 22.3947 24.4949 20.5478 25.7928 18.2905L25.9001 18.0853V17.6303H23.9093C23.8996 17.6303 23.8996 17.6392 23.8996 17.6392Z" fill="#666666"/>
<path d="M21.3525 11.6168H23.8996V9.28809H25.988V11.6168H28.535V13.3745H25.988V15.7121H23.8996V13.3745H21.3525V11.6168Z" fill="#666666"/>
<path d="M7.28995 9.42187H5.75781V7.45898H9.87604V17.5411H7.31923V9.42187H7.28995Z" fill="#666666"/>
<path d="M13.0571 16.9254C12.374 16.3722 11.9836 15.5692 12.0031 14.7306C11.9934 14.0882 12.2569 13.4725 12.7546 13.0086C13.1449 12.6606 13.6133 12.4019 14.1306 12.2502C13.75 12.1074 13.4182 11.9022 13.1352 11.6346C12.6765 11.2063 12.4325 10.6263 12.4618 10.0286C12.4423 9.33262 12.7253 8.64561 13.2718 8.15489C14.9308 6.92363 17.3022 6.92363 18.9612 8.15489C19.4979 8.65454 19.7907 9.33262 19.7712 10.0286C19.8004 10.6263 19.5565 11.2063 19.0978 11.6346C18.8148 11.9022 18.4732 12.1163 18.1024 12.2502C18.6196 12.3929 19.0881 12.6606 19.4784 13.0086C19.9663 13.4725 20.2396 14.0882 20.2298 14.7306C20.2494 15.5692 19.859 16.3722 19.1759 16.9254C17.3119 18.0675 14.9015 18.0675 13.0571 16.9254ZM15.0577 13.5617C14.7844 13.8383 14.6283 14.1952 14.6283 14.561C14.6185 14.9358 14.7746 15.3016 15.0577 15.5692C15.6725 16.051 16.5898 16.051 17.2046 15.5692C17.4974 15.2927 17.6437 14.9179 17.634 14.5432C17.6437 14.1774 17.4876 13.8205 17.2046 13.5617C16.9021 13.3119 16.502 13.187 16.1018 13.1959C15.7017 13.1781 15.3114 13.303 15.0186 13.5528L15.0577 13.5617ZM15.1552 9.29693C14.638 9.73412 14.6087 10.4836 15.0869 10.9565C15.1064 10.9743 15.1357 11.0011 15.1552 11.0189C15.4285 11.242 15.7896 11.358 16.1506 11.358C16.5215 11.3758 16.8826 11.2509 17.146 11.0189C17.4193 10.8048 17.5754 10.4836 17.5657 10.1535C17.5754 9.8055 17.429 9.47538 17.146 9.2434C16.8728 9.02927 16.5117 8.91328 16.1506 8.9222C15.7603 8.91328 15.3895 9.03819 15.1162 9.28801L15.1552 9.29693Z" fill="#666666"/>
</g>
<defs>
<clipPath id="clip0">
<rect width="28.5348" height="25" fill="white"/>
</clipPath>
</defs>
</svg>
