<svg width="91" height="21" viewBox="0 0 91 21" fill="none" xmlns="http://www.w3.org/2000/svg">
<g opacity="0.6" clip-path="url(#clip0)">
<path d="M69.0907 0.00366211C69.2354 0.0187882 69.3801 0.0364352 69.5248 0.0490403C70.2957 0.115847 71.0459 0.275931 71.7547 0.609965C72.4053 0.917528 72.9597 1.34988 73.3768 1.95996C73.6856 2.41123 73.8777 2.91417 73.9774 3.45492C74.048 3.83938 74.0698 4.22761 74.0407 4.61585C74.0018 5.13644 73.868 5.63308 73.6625 6.10829C73.3829 6.7524 72.9986 7.32467 72.556 7.85787C72.0077 8.51711 71.3875 9.09694 70.7358 9.644C70.089 10.1835 69.4153 10.6839 68.7393 11.1818C68.7089 11.2045 68.6809 11.2272 68.653 11.2486C68.6578 11.26 68.659 11.2637 68.6603 11.2675C68.6627 11.2701 68.6651 11.2738 68.6676 11.2751C68.6748 11.2764 68.6821 11.2776 68.6907 11.2776C68.6943 11.2776 68.698 11.2776 68.7016 11.2776C68.7125 11.2776 68.7247 11.2776 68.7356 11.2776C70.6009 11.2776 72.4661 11.2776 74.3313 11.2776C74.3386 11.2776 74.3459 11.2776 74.3544 11.2776C74.358 11.2776 74.3617 11.2776 74.3653 11.2776C74.369 11.2776 74.3726 11.2789 74.3763 11.2789C74.3799 11.2801 74.3835 11.2801 74.3872 11.2814C74.3908 11.2827 74.3933 11.2864 74.4018 11.2927C74.4018 12.3011 74.4018 13.3146 74.4018 14.3343C70.6629 14.3343 66.9264 14.3343 63.1826 14.3343C63.1801 14.3053 63.1753 14.2751 63.1753 14.2461C63.1753 13.3978 63.1765 12.5495 63.1729 11.7011C63.1729 11.6243 63.2032 11.5814 63.2567 11.5373C63.8927 11.0091 64.5553 10.5188 65.2204 10.0322C65.9305 9.51165 66.6443 8.99358 67.3459 8.46165C67.9125 8.03181 68.4499 7.56543 68.9375 7.03728C69.3205 6.62131 69.6597 6.17383 69.8981 5.65072C70.1194 5.16795 70.2263 4.65997 70.1947 4.12425C70.185 3.94904 70.1546 3.77635 70.0962 3.61123C69.9503 3.19022 69.6658 2.91543 69.2536 2.78938C68.9351 2.69232 68.6092 2.68223 68.2845 2.74274C67.8492 2.82467 67.5355 3.08181 67.3325 3.48644C67.1878 3.77383 67.1088 4.08013 67.0698 4.39778C67.0407 4.63602 67.0322 4.87803 67.0139 5.11753C67.0115 5.15156 67.0078 5.1856 67.0054 5.22341C65.7445 5.22341 64.4909 5.22341 63.2227 5.22341C63.2215 5.144 63.2166 5.06459 63.2215 4.98518C63.2446 4.58938 63.2871 4.19484 63.3747 3.80913C63.5474 3.04652 63.8574 2.35576 64.3571 1.76459C64.7025 1.35618 65.111 1.03097 65.5682 0.77257C66.164 0.437276 66.8023 0.228032 67.4699 0.120889C67.7362 0.0780319 68.0061 0.0578638 68.2736 0.0263512C68.3064 0.0225697 68.338 0.0112251 68.3709 0.00366211C68.6104 0.00366211 68.8512 0.00366211 69.0907 0.00366211Z" fill="white"/>
<path d="M6.49152 21C6.45991 20.9862 6.42951 20.9698 6.39789 20.9584C6.14742 20.8715 5.98813 20.6547 5.9857 20.3837C5.98327 19.9929 5.98205 19.6034 5.9857 19.2127C5.98935 18.8736 6.24469 18.5169 6.64959 18.5269C6.98518 18.5358 7.32199 18.5358 7.65758 18.5269C8.06369 18.5169 8.37253 18.8975 8.36159 19.2656C8.35186 19.6135 8.35308 19.9627 8.36159 20.3106C8.3701 20.6295 8.18771 20.8702 7.90684 20.9597C7.87887 20.9685 7.85455 20.9862 7.82902 21C7.384 21 6.93776 21 6.49152 21Z" fill="white"/>
<path d="M3.50179 21C3.46775 20.9849 3.43492 20.966 3.39966 20.9534C3.16499 20.8676 2.98625 20.7239 2.93275 20.4567C2.92424 20.4126 2.92302 20.3647 2.9218 20.3193C2.92059 19.9714 2.92788 19.6223 2.91937 19.2743C2.90965 18.8622 3.28901 18.537 3.60758 18.5319C3.98451 18.5269 4.36023 18.5281 4.73716 18.5306C4.94143 18.5319 5.08977 18.6378 5.19191 18.8168C5.26608 18.9466 5.29769 19.0878 5.29769 19.2378C5.29769 19.6109 5.29526 19.9853 5.29769 20.3584C5.29891 20.6445 5.15786 20.9042 4.87821 20.9748C4.87091 20.976 4.86726 20.9912 4.8624 20.9987C4.40886 21 3.95533 21 3.50179 21Z" fill="white"/>
<path d="M34.6986 20.9998C34.6682 20.9847 34.639 20.9671 34.6086 20.9557C34.3934 20.8763 34.2475 20.7175 34.239 20.4868C34.2208 20.0267 34.2159 19.5629 34.2402 19.1028C34.2585 18.7536 34.526 18.5305 34.864 18.5292C35.2081 18.5267 35.5522 18.5255 35.8963 18.5292C36.2222 18.533 36.4994 18.7612 36.5784 19.0864C36.5906 19.1381 36.5942 19.1935 36.5954 19.2477C36.5967 19.6082 36.5881 19.97 36.5991 20.3305C36.6076 20.6192 36.4191 20.8372 36.21 20.9267C36.1528 20.9507 36.0945 20.9746 36.0373 20.9986C35.5899 20.9998 35.1436 20.9998 34.6986 20.9998Z" fill="white"/>
<path d="M13.7384 0C13.7615 0.0138655 13.7822 0.0315126 13.8065 0.0403361C14.1105 0.156303 14.3135 0.441177 14.3172 0.780252C14.322 1.14076 14.322 1.50126 14.3172 1.86303C14.3135 2.20462 14.0801 2.4416 13.725 2.46933C13.5925 2.47941 13.4587 2.47563 13.325 2.47563C13.0818 2.47689 12.8398 2.47815 12.5967 2.47437C12.5128 2.47311 12.4264 2.46681 12.345 2.44538C12.1006 2.38235 11.951 2.19202 11.9425 1.92983C11.9352 1.73697 11.9401 1.54412 11.9401 1.35126C11.9401 1.14202 11.9352 0.931513 11.9437 0.722269C11.9534 0.47521 12.0507 0.267227 12.2453 0.118487C12.3073 0.0705882 12.3827 0.0403361 12.452 0.00252101C12.8787 0 13.308 0 13.7384 0Z" fill="white"/>
<path d="M46.5648 21.0002C46.5514 20.9901 46.5393 20.975 46.5247 20.97C46.2706 20.8817 46.1405 20.6876 46.1332 20.4216C46.121 20.0069 46.1247 19.591 46.132 19.175C46.1356 18.9847 46.2049 18.8132 46.3399 18.6796C46.4335 18.5863 46.5466 18.5321 46.6791 18.5321C47.0597 18.5309 47.4403 18.5296 47.8208 18.5334C48.1333 18.5359 48.5188 18.8599 48.5078 19.2758C48.4993 19.6111 48.5066 19.9477 48.5066 20.283C48.5066 20.6258 48.3461 20.8515 48.0288 20.9548C47.9935 20.9662 47.9607 20.9851 47.9266 21.0015C47.4719 21.0002 47.0183 21.0002 46.5648 21.0002Z" fill="white"/>
<path d="M7.80476 0C7.82665 0.0138655 7.84732 0.0315126 7.87164 0.0415966C8.17318 0.166387 8.36043 0.45 8.36043 0.784034C8.36043 1.12815 8.3507 1.47353 8.36286 1.81765C8.37867 2.25756 8.06497 2.44538 7.78044 2.46933C7.6552 2.47941 7.52997 2.47563 7.40351 2.47563C7.14817 2.47689 6.89283 2.47563 6.63749 2.47563C6.51103 2.47563 6.38701 2.45798 6.27272 2.39622C6.0879 2.29538 5.98819 2.13277 5.98576 1.91975C5.97968 1.52017 5.97968 1.12185 5.98576 0.722269C5.98941 0.476471 6.14261 0.141176 6.4551 0.0340336C6.47699 0.0264706 6.49523 0.0113445 6.5159 0C6.94633 0 7.37555 0 7.80476 0Z" fill="white"/>
<path d="M38.9772 0C38.9894 0.010084 39.0003 0.0226891 39.0137 0.0277311C39.3189 0.139916 39.4673 0.383193 39.4818 0.698319C39.5013 1.11303 39.4928 1.53025 39.4843 1.94622C39.4782 2.22983 39.2703 2.43655 38.9833 2.46807C38.9031 2.47689 38.8216 2.47563 38.7401 2.47563C38.4362 2.47689 38.1322 2.47563 37.8282 2.47563C37.6932 2.47563 37.5619 2.45672 37.4391 2.39496C37.23 2.2916 37.1132 2.11891 37.1108 1.87815C37.1059 1.50882 37.1047 1.13824 37.1108 0.768908C37.1169 0.436134 37.3212 0.153782 37.6215 0.0403361C37.6458 0.0315126 37.6665 0.0138655 37.6896 0C38.1188 0 38.548 0 38.9772 0Z" fill="white"/>
<path d="M44.9109 3.98012e-05C44.9279 0.0101238 44.9425 0.0227289 44.9608 0.0290314C45.2514 0.141216 45.4411 0.421048 45.4423 0.746258C45.4435 1.12063 45.4435 1.49374 45.4423 1.86811C45.4423 2.21222 45.2319 2.44668 44.8988 2.46937C44.7942 2.47693 44.6884 2.47441 44.5826 2.47441C44.3115 2.47441 44.0391 2.47315 43.768 2.47441C43.6196 2.47567 43.4774 2.45172 43.3473 2.37357C43.1685 2.26643 43.0676 2.1076 43.0664 1.89206C43.064 1.51391 43.0579 1.13575 43.0688 0.757603C43.0785 0.42609 43.2403 0.189115 43.5333 0.0491995C43.5637 0.0353339 43.5929 0.0164264 43.6221 -0.0012207C44.0513 3.98012e-05 44.4805 3.98012e-05 44.9109 3.98012e-05Z" fill="white"/>
<path d="M41.9439 3.98012e-05C41.9755 0.0151659 42.0059 0.0328129 42.0387 0.0466785C42.2965 0.153821 42.4643 0.342897 42.5336 0.623989C42.5458 0.671889 42.5494 0.723569 42.5494 0.772729C42.5506 1.13828 42.5482 1.50256 42.5506 1.86811C42.5518 2.08617 42.4582 2.245 42.2819 2.35466C42.1688 2.42525 42.046 2.46937 41.9147 2.47063C41.5147 2.47315 41.1134 2.47945 40.7134 2.46937C40.379 2.46054 40.1772 2.23365 40.1747 1.88701C40.1723 1.50886 40.1711 1.13197 40.176 0.753821C40.1784 0.542057 40.2367 0.345418 40.3851 0.192897C40.4459 0.129872 40.5298 0.0907961 40.6027 0.0391154C40.621 0.0265104 40.6392 0.0126448 40.6562 -0.0012207C41.0842 3.98012e-05 41.5147 3.98012e-05 41.9439 3.98012e-05Z" fill="white"/>
<path d="M10.7719 3.98012e-05C10.7828 0.0101238 10.7914 0.0239894 10.8035 0.0290314C11.0564 0.127351 11.1841 0.329031 11.234 0.592477C11.2485 0.665586 11.2522 0.742477 11.2534 0.816847C11.2558 1.16475 11.2558 1.51265 11.2522 1.8618C11.251 1.945 11.2412 2.03071 11.2169 2.10886C11.144 2.33701 10.975 2.44668 10.7512 2.46937C10.6625 2.47819 10.5737 2.47567 10.485 2.47567C10.1931 2.47693 9.90253 2.47441 9.61071 2.47567C9.41981 2.47693 9.24107 2.43281 9.08665 2.31307C8.94804 2.20592 8.8763 2.06222 8.87752 1.88071C8.87873 1.52021 8.88603 1.15844 8.87508 0.797939C8.86414 0.461384 9.12799 0.134914 9.3882 0.045418C9.42103 0.0340734 9.45143 0.0151659 9.48304 -0.0012207C9.91226 3.98012e-05 10.3427 3.98012e-05 10.7719 3.98012e-05Z" fill="white"/>
<path d="M9.45852 21.0001C9.44272 20.9912 9.42691 20.9786 9.40989 20.9748C9.29438 20.9446 9.18859 20.8954 9.09618 20.8173C8.95271 20.6963 8.8761 20.5425 8.87732 20.3484C8.87853 19.9828 8.8834 19.6173 8.8761 19.2518C8.86881 18.9051 9.17765 18.5484 9.53148 18.5358C9.92422 18.5207 10.317 18.5257 10.7097 18.5358C10.9225 18.5408 11.0684 18.6732 11.1657 18.8635C11.224 18.977 11.252 19.0992 11.2532 19.2265C11.2556 19.6085 11.2581 19.9917 11.2532 20.3736C11.2483 20.6862 11.0915 20.9005 10.8276 20.9761C10.8155 20.9799 10.807 20.9925 10.796 21.0013C10.3498 21.0001 9.90476 21.0001 9.45852 21.0001Z" fill="white"/>
<path d="M36.0116 0C36.031 0.0113445 36.048 0.0277311 36.0687 0.0352941C36.3703 0.129832 36.611 0.478992 36.5989 0.80042C36.5855 1.15714 36.594 1.51513 36.5964 1.87185C36.5989 2.10252 36.4931 2.2626 36.307 2.37227C36.2073 2.43151 36.0979 2.46933 35.9836 2.47059C35.5738 2.47311 35.1653 2.48067 34.7555 2.46933C34.5184 2.46302 34.336 2.34454 34.2558 2.1C34.2327 2.03067 34.2242 1.95252 34.2242 1.87689C34.2205 1.50756 34.223 1.13697 34.223 0.767647C34.223 0.612605 34.2594 0.468908 34.3336 0.335294C34.409 0.20042 34.5111 0.0970588 34.6558 0.0415966C34.6801 0.0327731 34.7008 0.015126 34.7239 0.0012605C35.1519 0 35.5811 0 36.0116 0Z" fill="white"/>
<path d="M1.84776 0C1.86843 0.0113445 1.88788 0.0252101 1.90855 0.0340336C2.21132 0.15 2.40343 0.433613 2.40465 0.766387C2.40586 1.12311 2.3937 1.47983 2.40829 1.83529C2.4241 2.23109 2.13958 2.45294 1.8283 2.47059C1.65443 2.48067 1.48055 2.47563 1.30668 2.47563C1.09997 2.47689 0.894484 2.47563 0.68778 2.47563C0.561325 2.47563 0.438518 2.4542 0.324222 2.39244C0.175881 2.31176 0.0798241 2.19076 0.0445627 2.01933C0.0372673 1.98277 0.0251081 1.94748 0.0153809 1.91092C0.0165968 1.51134 0.0178127 1.11176 0.0190286 0.712185C0.02754 0.679412 0.0372673 0.647899 0.0445627 0.615126C0.10779 0.326471 0.259779 0.117227 0.54187 0.0239496C0.556461 0.0189076 0.569836 0.00756303 0.583211 0C1.00513 0 1.42584 0 1.84776 0Z" fill="white"/>
<path d="M4.81508 3.98011e-05C4.81995 0.00634232 4.82359 0.0164264 4.82967 0.0176869C5.15554 0.12609 5.28078 0.390796 5.29415 0.712225C5.31117 1.11937 5.30266 1.52651 5.29658 1.93365C5.29172 2.24374 5.09353 2.45928 4.79198 2.46685C4.38343 2.47819 3.97367 2.47189 3.56513 2.46811C3.44718 2.46685 3.3341 2.42777 3.22954 2.36979C3.02648 2.25634 2.91826 2.08617 2.92069 1.84164C2.92434 1.5013 2.92191 1.16096 2.92191 0.820628C2.92191 0.470208 3.12618 0.167687 3.44232 0.0466785C3.4788 0.0328129 3.51406 0.0151659 3.54932 -0.0012207C3.97124 3.98011e-05 4.39316 3.98011e-05 4.81508 3.98011e-05Z" fill="white"/>
<path d="M12.4254 21.0001C12.395 20.985 12.3646 20.9686 12.333 20.9573C12.091 20.864 11.9512 20.6825 11.9439 20.4178C11.9329 20.0031 11.9378 19.5871 11.9427 19.1712C11.9451 19.0161 12.0047 18.8762 12.0995 18.7564C12.2162 18.6102 12.367 18.5296 12.553 18.5296C12.9093 18.5296 13.2656 18.5258 13.6218 18.5308C14.0012 18.5359 14.3088 18.8497 14.3161 19.2443C14.3234 19.6136 14.321 19.9829 14.3161 20.3522C14.3125 20.6371 14.1471 20.8539 13.876 20.951C13.837 20.9648 13.7994 20.9838 13.7617 21.0001C13.3166 21.0001 12.8704 21.0001 12.4254 21.0001Z" fill="white"/>
<path d="M0.0192727 19.1923C0.029 19.1557 0.0399432 19.1204 0.0472387 19.0826C0.103171 18.8002 0.348785 18.5204 0.692887 18.5267C1.04064 18.5318 1.3896 18.5305 1.73736 18.528C2.14833 18.5255 2.41219 18.915 2.40611 19.2301C2.40003 19.5956 2.39638 19.9612 2.40732 20.3255C2.41705 20.6431 2.20913 20.8977 1.9319 20.9708C1.91123 20.9759 1.89178 20.9897 1.87232 20.9998C1.42608 20.9998 0.981058 20.9998 0.534819 20.9998C0.504421 20.9847 0.474024 20.9658 0.44241 20.9544C0.227194 20.8725 0.0885797 20.7213 0.043591 20.4843C0.0375114 20.4515 0.0253523 20.4213 0.015625 20.3897C0.0168409 19.9902 0.0180568 19.5918 0.0192727 19.1923Z" fill="white"/>
<path d="M21.1546 0C21.1631 0.00756303 21.1704 0.0201681 21.1801 0.0239496C21.4829 0.132353 21.5935 0.379412 21.6215 0.681933C21.6312 0.781513 21.6239 0.883613 21.6239 0.984454C21.6239 1.29454 21.6252 1.60588 21.6239 1.91597C21.6215 2.25 21.4306 2.46176 21.106 2.46933C20.7096 2.47815 20.3132 2.47437 19.9168 2.46933C19.7381 2.46681 19.5764 2.40252 19.4377 2.28277C19.3234 2.18319 19.2566 2.0584 19.2554 1.90084C19.2541 1.51513 19.2517 1.12815 19.2566 0.742437C19.2602 0.456303 19.4815 0.163866 19.7648 0.0516807C19.8001 0.0378151 19.8329 0.0176471 19.867 0C20.295 0 20.7254 0 21.1546 0Z" fill="white"/>
<path d="M24.1212 0C24.1455 0.012605 24.1686 0.0289916 24.1941 0.0378151C24.4835 0.146218 24.6842 0.429832 24.6866 0.747479C24.689 1.12941 24.6878 1.51134 24.6878 1.89454C24.6878 2.12899 24.5772 2.29538 24.3777 2.39244C24.2914 2.43403 24.1929 2.46555 24.0993 2.46807C23.6944 2.47563 23.2895 2.47689 22.8846 2.46807C22.7873 2.46555 22.684 2.43151 22.5964 2.38613C22.4201 2.29538 22.3241 2.13655 22.3216 1.92983C22.3168 1.52647 22.3083 1.12311 22.3241 0.721008C22.3362 0.398319 22.4919 0.157563 22.7934 0.0365546C22.8092 0.0302521 22.8214 0.0138655 22.836 0.0012605C23.2615 0 23.6908 0 24.1212 0Z" fill="white"/>
<path d="M22.808 20.9999C22.7788 20.9848 22.7496 20.9659 22.718 20.9545C22.4651 20.8587 22.318 20.6495 22.3168 20.3709C22.3143 19.989 22.3143 19.6058 22.3168 19.2239C22.3192 18.8987 22.5174 18.6251 22.8031 18.5495C22.8615 18.5344 22.9235 18.5306 22.9831 18.5306C23.3199 18.5293 23.6555 18.5369 23.9923 18.5281C24.3948 18.5167 24.7024 18.8974 24.689 19.2579C24.6768 19.6109 24.6768 19.9638 24.689 20.3167C24.7 20.6722 24.4774 20.8903 24.2343 20.9659C24.2112 20.9735 24.1917 20.9898 24.1698 21.0024C23.7151 20.9999 23.2615 20.9999 22.808 20.9999Z" fill="white"/>
<path d="M19.8413 21.0002C19.8036 20.9838 19.7659 20.9649 19.727 20.9511C19.5896 20.9032 19.4704 20.8288 19.378 20.7116C19.2978 20.6107 19.254 20.496 19.254 20.3649C19.254 19.9868 19.2504 19.6086 19.2552 19.2305C19.2601 18.8775 19.5774 18.5435 19.9337 18.5334C20.3179 18.5221 20.7034 18.5258 21.0876 18.5321C21.304 18.5347 21.4487 18.6632 21.5448 18.8548C21.5995 18.9645 21.6238 19.0817 21.6238 19.2065C21.6226 19.6011 21.625 19.9956 21.6226 20.3914C21.6214 20.7153 21.4743 20.9019 21.1678 20.9813C21.1618 20.9826 21.1593 20.9939 21.1545 21.0002C20.7167 21.0002 20.279 21.0002 19.8413 21.0002Z" fill="white"/>
<path d="M25.7747 21.0003C25.7407 20.9839 25.7079 20.965 25.6738 20.9524C25.5559 20.912 25.4525 20.8503 25.3662 20.757C25.2641 20.6461 25.2081 20.5175 25.2093 20.3612C25.2118 20.0007 25.2142 19.6389 25.2093 19.2784C25.2045 18.9708 25.3504 18.7641 25.596 18.6166C25.7079 18.5498 25.8295 18.5259 25.9571 18.5271C26.2854 18.5297 26.6125 18.5271 26.9408 18.5284C27.3116 18.5297 27.5633 18.783 27.5779 19.17C27.5828 19.291 27.5791 19.4133 27.5791 19.5356C27.5791 19.8078 27.5731 20.0813 27.5816 20.3536C27.5901 20.6259 27.4417 20.9108 27.1536 20.975C27.1463 20.9763 27.1426 20.9914 27.1366 20.999C26.6818 21.0003 26.2283 21.0003 25.7747 21.0003Z" fill="white"/>
<path d="M27.0869 0C27.0954 0.00756303 27.1027 0.0189076 27.1136 0.0226891C27.4274 0.128571 27.5599 0.379412 27.5733 0.693277C27.5915 1.10798 27.5818 1.52395 27.5769 1.93992C27.5733 2.22983 27.3824 2.43655 27.1027 2.46807C27.0346 2.47563 26.9653 2.47437 26.896 2.47563C26.5762 2.47689 26.2564 2.47563 25.9366 2.47563C25.7628 2.47563 25.5974 2.44034 25.4527 2.33824C25.2959 2.22857 25.2059 2.07983 25.2083 1.87437C25.2132 1.52143 25.2229 1.16849 25.2059 0.816807C25.1889 0.471429 25.4442 0.141176 25.7372 0.0403361C25.7664 0.0302521 25.7932 0.0138655 25.8224 0C26.2443 0 26.6662 0 27.0869 0Z" fill="white"/>
<path d="M0.0364773 14.2801C0.0243182 14.2851 0.0121591 14.2889 0 14.294C0 13.8566 0 13.4204 0 12.983C0.0121591 12.9868 0.0243182 12.9919 0.0376932 12.9956C0.0328296 13.0486 0.0231023 13.1028 0.0231023 13.1557C0.0218864 13.4809 0.0218864 13.8061 0.0231023 14.1314C0.0231023 14.1818 0.0316137 14.2309 0.0364773 14.2801Z" fill="white"/>
<path d="M-4.7922e-06 9.90784C0.0121543 9.91288 0.0243134 9.91666 0.0364725 9.9217C0.0316089 9.9759 0.0230975 10.0288 0.0218816 10.083C0.0194498 10.4423 0.0194498 10.8015 0.0182339 11.1608C0.0121543 11.1721 0.00485885 11.1822 -0.0012207 11.1935C-4.7922e-06 10.765 -4.7922e-06 10.3364 -4.7922e-06 9.90784Z" fill="white"/>
<path d="M0 6.8573C0.00607956 6.86738 0.0109432 6.87621 0.0170228 6.88503C0.0182387 7.28461 0.0182387 7.68419 0.0194546 8.08503C0.013375 8.09638 0.00607956 8.10646 0 8.1178C0 7.69806 0 7.27705 0 6.8573Z" fill="white"/>
<path d="M0.0170228 17.3169C0.0109432 17.3257 0.00607956 17.3358 0 17.3446C0 16.9249 0 16.5039 0 16.0841C0.00607956 16.0955 0.013375 16.1055 0.0194546 16.1169C0.0182387 16.5165 0.0182387 16.916 0.0170228 17.3169Z" fill="white"/>
<path d="M0 0.680542C0.00607956 0.690626 0.013375 0.70071 0.0194546 0.712055C0.0182387 1.11163 0.0170228 1.51121 0.0158068 1.91079C0.0109432 1.92088 0.00486364 1.93096 0 1.94105C0 1.5213 0 1.10029 0 0.680542Z" fill="white"/>
<path d="M0.0158068 20.39C0.0109432 20.4001 0.00607956 20.4102 0 20.4203C0 20.0005 0 19.5795 0 19.1598C0.00607956 19.1711 0.013375 19.1812 0.0194546 19.1926C0.0182387 19.5921 0.0170228 19.9905 0.0158068 20.39Z" fill="white"/>
<path d="M0.0194546 5.00923C0.013375 5.02057 0.00607956 5.03065 0 5.042C0 4.62225 0 4.20124 0 3.78149C0.00607956 3.79032 0.0109432 3.8004 0.0170228 3.80923C0.0182387 4.20881 0.0182387 4.60965 0.0194546 5.00923Z" fill="white"/>
<path d="M50.3716 0.263641C50.4251 0.263641 50.4664 0.263641 50.5065 0.263641C52.345 0.263641 54.1835 0.26112 56.0231 0.264901C56.7819 0.266162 57.5369 0.326666 58.2799 0.495573C58.8209 0.619103 59.3414 0.799355 59.8204 1.09683C60.4369 1.48003 60.8758 2.00944 61.0874 2.72919C61.2041 3.12498 61.2321 3.53087 61.2126 3.94053C61.1871 4.51406 61.0473 5.05356 60.7494 5.54263C60.426 6.0733 59.9724 6.44515 59.4192 6.68591C59.2137 6.7754 58.9948 6.83843 58.782 6.91406C58.7614 6.92162 58.7419 6.92792 58.7188 6.95187C58.7662 6.96322 58.8137 6.97582 58.8611 6.98717C59.435 7.12078 59.9724 7.34137 60.443 7.71196C61.1056 8.23381 61.5105 8.92456 61.6054 9.78044C61.744 11.0359 61.3877 12.125 60.494 13.0036C60.0344 13.4536 59.486 13.7548 58.8903 13.9678C58.3978 14.143 57.8932 14.2451 57.3752 14.2994C57.0348 14.3359 56.6943 14.346 56.3526 14.346C54.4048 14.3447 52.4581 14.346 50.5102 14.346C50.4652 14.346 50.4214 14.346 50.3691 14.346C50.3716 9.64809 50.3716 4.9628 50.3716 0.263641ZM54.1628 11.6788C54.1932 11.6813 54.2163 11.6838 54.237 11.6838C54.7586 11.6838 55.2802 11.6876 55.8006 11.6825C56.1824 11.6788 56.5545 11.6157 56.9047 11.4481C57.284 11.2666 57.554 10.9804 57.6889 10.5657C57.768 10.3237 57.7971 10.0729 57.7789 9.81826C57.7558 9.49683 57.6427 9.21574 57.4154 8.98885C57.2476 8.8212 57.0494 8.70649 56.8341 8.61952C56.4365 8.46196 56.0207 8.40019 55.6 8.39011C55.1428 8.37876 54.6844 8.38507 54.2272 8.38507C54.2053 8.38507 54.1847 8.39137 54.1604 8.39389C54.1628 9.48801 54.1628 10.5771 54.1628 11.6788ZM54.1664 2.83381C54.1664 3.85103 54.1664 4.85566 54.1664 5.8691C54.3087 5.8691 54.4424 5.87162 54.5774 5.8691C55.0273 5.86154 55.4784 5.89305 55.9271 5.84263C56.2007 5.81238 56.4682 5.7544 56.7198 5.63339C57.0737 5.46448 57.3169 5.19473 57.4129 4.79767C57.4859 4.49767 57.4871 4.19767 57.4117 3.89767C57.3315 3.58129 57.1576 3.33423 56.8852 3.17288C56.7466 3.08969 56.5958 3.0254 56.4426 2.97498C56.1155 2.86658 55.7727 2.84389 55.431 2.83885C55.048 2.83255 54.665 2.83633 54.2819 2.83633C54.2455 2.83255 54.2078 2.83381 54.1664 2.83381Z" fill="white"/>
<path d="M84.8351 6.93896C85.0479 6.9982 85.2376 7.04232 85.4212 7.10409C85.9914 7.29064 86.5058 7.5793 86.9265 8.02678C87.3776 8.50703 87.6597 9.0793 87.7363 9.7461C87.8554 10.7734 87.6463 11.7188 87.0311 12.5482C86.6371 13.0801 86.1288 13.4671 85.5464 13.7482C84.9664 14.028 84.3548 14.1881 83.7226 14.2726C83.3043 14.328 82.886 14.3432 82.4653 14.3432C80.5247 14.3419 78.5853 14.3419 76.6447 14.3419C76.6009 14.3419 76.5572 14.3419 76.5073 14.3419C76.5073 9.64526 76.5073 4.96249 76.5073 0.270892C76.5365 0.267111 76.5645 0.262069 76.5924 0.262069C78.5403 0.262069 80.4882 0.254505 82.4349 0.268371C83.2532 0.274674 84.0667 0.371732 84.857 0.611228C85.3713 0.767531 85.8589 0.985598 86.2857 1.32972C86.9095 1.8314 87.2499 2.49568 87.3326 3.30619C87.3922 3.88728 87.3399 4.45577 87.1417 5.00409C86.8608 5.77551 86.3416 6.31879 85.6206 6.65283C85.392 6.75745 85.1488 6.82678 84.9117 6.91375C84.8947 6.91879 84.8765 6.92509 84.8351 6.93896ZM80.3022 11.6785C80.335 11.681 80.3569 11.6835 80.3788 11.6835C80.8968 11.6835 81.4147 11.686 81.9327 11.6835C82.261 11.6822 82.582 11.6318 82.8921 11.5133C83.3456 11.3394 83.6776 11.0343 83.832 10.5478C83.9122 10.2932 83.9341 10.031 83.9098 9.76501C83.8831 9.48014 83.7797 9.23308 83.5876 9.02509C83.3979 8.82089 83.1669 8.6898 82.9115 8.59652C82.5334 8.45787 82.1407 8.39862 81.7418 8.3898C81.2846 8.37972 80.8262 8.38476 80.3678 8.38476C80.346 8.38476 80.3253 8.39106 80.301 8.39484C80.3022 9.48896 80.3022 10.5768 80.3022 11.6785ZM80.3034 5.86753C80.352 5.86753 80.3885 5.86753 80.425 5.86753C80.7691 5.86753 81.1156 5.87131 81.4597 5.86627C81.6628 5.86375 81.8634 5.85745 82.0653 5.83854C82.317 5.81585 82.5601 5.76039 82.7948 5.65829C83.1158 5.51837 83.3675 5.30156 83.4952 4.95745C83.6301 4.59442 83.6362 4.22005 83.5317 3.84694C83.4174 3.43854 83.1377 3.18896 82.7668 3.03518C82.3875 2.87888 81.9887 2.84232 81.5862 2.83476C81.1922 2.82719 80.7995 2.83098 80.4055 2.83098C80.3727 2.83098 80.3399 2.83476 80.3034 2.83728C80.3034 3.84946 80.3034 4.8503 80.3034 5.86753Z" fill="white"/>
<path d="M34.2218 10.5631C34.2218 10.3703 34.2181 10.1774 34.223 9.9833C34.2291 9.69842 34.3677 9.48288 34.6036 9.39842C34.6717 9.37447 34.7458 9.35935 34.8163 9.35809C35.1848 9.35431 35.5532 9.35178 35.9216 9.35809C36.1186 9.36061 36.2925 9.43498 36.4323 9.58498C36.5381 9.69842 36.5952 9.83204 36.5952 9.99212C36.594 10.3703 36.5964 10.7472 36.594 11.1253C36.5916 11.4846 36.284 11.8135 35.9362 11.8186C35.5593 11.8249 35.1836 11.8236 34.8066 11.8186C34.5209 11.8148 34.2814 11.5816 34.2339 11.2665C34.2254 11.2085 34.2218 11.1493 34.2218 11.0913C34.2206 10.9161 34.2218 10.7396 34.2218 10.5631Z" fill="white"/>
<path d="M17.5422 8.64445C17.3477 8.64445 17.1531 8.64697 16.9586 8.64445C16.6765 8.64067 16.443 8.46042 16.3786 8.19823C16.364 8.13773 16.3603 8.07344 16.3603 8.01168C16.3591 7.65874 16.3603 7.30579 16.3591 6.95411C16.3591 6.72974 16.4297 6.53563 16.5841 6.37554C16.7044 6.24949 16.8491 6.18394 17.0194 6.18268C17.372 6.18016 17.7246 6.1789 18.076 6.18268C18.3946 6.18647 18.673 6.45243 18.7229 6.79025C18.7326 6.85201 18.735 6.91504 18.7362 6.97806C18.7374 7.31336 18.7374 7.64991 18.7362 7.98521C18.7362 8.39487 18.4967 8.64319 18.1003 8.64571C17.9155 8.64571 17.7295 8.64445 17.5422 8.64445Z" fill="white"/>
<path d="M45.4421 10.5604C45.4421 10.757 45.4458 10.9549 45.4409 11.1516C45.4348 11.4755 45.2159 11.7528 44.9241 11.8108C44.8804 11.8196 44.8354 11.8209 44.7916 11.8209C44.4475 11.8222 44.1034 11.8133 43.7593 11.8234C43.3945 11.8335 43.0589 11.4957 43.065 11.1037C43.0699 10.7507 43.0747 10.3978 43.0638 10.0461C43.0528 9.66796 43.3276 9.37174 43.7082 9.35914C44.0888 9.34653 44.4694 9.34905 44.85 9.35788C45.1941 9.36544 45.4397 9.63771 45.4421 9.99317C45.4421 10.1822 45.4421 10.3713 45.4421 10.5604Z" fill="white"/>
<path d="M35.3614 8.64476C35.1753 8.64476 34.9893 8.64602 34.802 8.64476C34.4592 8.64223 34.2281 8.4103 34.2233 8.05484C34.2184 7.67291 34.2208 7.29097 34.2233 6.90904C34.2245 6.76408 34.2585 6.62669 34.3315 6.50064C34.4531 6.28887 34.6306 6.17795 34.8713 6.17921C35.2033 6.18173 35.5352 6.17921 35.8672 6.18047C36.266 6.18173 36.5943 6.52081 36.5955 6.93173C36.5967 7.29728 36.5931 7.66282 36.5967 8.02711C36.5992 8.24644 36.5043 8.40526 36.3341 8.52123C36.2125 8.60442 36.0775 8.6435 35.9328 8.6435C35.7419 8.64476 35.551 8.64476 35.3614 8.64476Z" fill="white"/>
<path d="M16.36 10.5595C16.36 10.3831 16.3624 10.2066 16.36 10.0301C16.3527 9.59147 16.6822 9.35198 17.0214 9.35576C17.3777 9.35828 17.734 9.3545 18.0902 9.35702C18.3833 9.35954 18.6264 9.53349 18.7043 9.79819C18.7249 9.86878 18.7346 9.94693 18.7359 10.0213C18.7395 10.3818 18.7395 10.7436 18.7371 11.1041C18.7346 11.4608 18.5255 11.7368 18.2082 11.8074C18.1607 11.8175 18.1121 11.82 18.0635 11.82C17.7194 11.8213 17.3753 11.8213 17.0312 11.82C16.6676 11.8188 16.3831 11.5415 16.3661 11.1633C16.3576 10.9629 16.3648 10.76 16.3648 10.5595C16.3624 10.5595 16.3612 10.5595 16.36 10.5595Z" fill="white"/>
<path d="M46.1281 4.40066C46.1281 4.21158 46.1232 4.02251 46.1305 3.83343C46.1329 3.74646 46.1463 3.65696 46.173 3.57503C46.2533 3.33049 46.4381 3.19058 46.6862 3.18806C47.0582 3.18427 47.4315 3.18553 47.8036 3.18806C47.9933 3.18932 48.1598 3.26116 48.3009 3.39226C48.4334 3.51579 48.5064 3.66957 48.5064 3.85864C48.5052 4.20654 48.4979 4.5557 48.5088 4.9036C48.5198 5.24394 48.2887 5.50612 48.0407 5.59688C47.958 5.62713 47.868 5.64478 47.7805 5.64604C47.4279 5.65108 47.0753 5.64226 46.7239 5.64982C46.4491 5.65612 46.2205 5.46705 46.1536 5.16705C46.1378 5.09772 46.1317 5.02587 46.1305 4.95528C46.1268 4.76999 46.1281 4.58595 46.1281 4.40066Z" fill="white"/>
<path d="M47.2442 8.64442C47.0582 8.64442 46.8709 8.64568 46.6849 8.64442C46.3602 8.6419 46.1365 8.42635 46.1304 8.0898C46.1231 7.68266 46.1268 7.27425 46.1304 6.86711C46.1316 6.71837 46.1766 6.57719 46.2557 6.45114C46.3651 6.27593 46.5195 6.1814 46.7214 6.18013C47.074 6.17887 47.4266 6.17509 47.7792 6.1814C48.1683 6.1877 48.5039 6.54694 48.5051 6.94778C48.5063 7.30451 48.5039 7.66249 48.5051 8.01921C48.5063 8.21963 48.4261 8.37593 48.2692 8.49064C48.133 8.59022 47.9811 8.64316 47.8145 8.64316C47.6248 8.64568 47.4351 8.64442 47.2442 8.64442Z" fill="white"/>
<path d="M0.0192775 5.00909C0.0180616 4.60951 0.0180616 4.20867 0.0168457 3.80909C0.0253571 3.77758 0.0363003 3.74607 0.0435957 3.7133C0.106823 3.40573 0.339062 3.19397 0.641824 3.18893C1.0224 3.18262 1.40298 3.18136 1.78356 3.18893C2.16293 3.19649 2.41584 3.52926 2.40733 3.85447C2.3976 4.2238 2.40611 4.59313 2.4049 4.96245C2.40368 5.34187 2.11794 5.64439 1.75317 5.64691C1.39326 5.64943 1.03213 5.64817 0.672222 5.64691C0.370676 5.64565 0.121414 5.4364 0.0496753 5.1301C0.039948 5.08977 0.0290048 5.04943 0.0192775 5.00909Z" fill="white"/>
<path d="M17.5529 14.8199C17.3669 14.8199 17.1808 14.8211 16.9948 14.8199C16.8586 14.8186 16.7309 14.7833 16.6166 14.7039C16.4622 14.5968 16.3686 14.4455 16.3662 14.2539C16.3601 13.843 16.3552 13.4308 16.3674 13.0199C16.3783 12.6669 16.6799 12.343 17.0459 12.3543C17.3814 12.3657 17.7183 12.3657 18.0538 12.3543C18.3809 12.343 18.7007 12.6216 18.7202 12.9594C18.7457 13.4069 18.7396 13.8569 18.7226 14.3043C18.7141 14.5388 18.5572 14.6913 18.3481 14.7695C18.2666 14.801 18.1754 14.8136 18.0879 14.8174C17.9091 14.8249 17.7316 14.8199 17.5529 14.8199Z" fill="white"/>
<path d="M35.3624 5.64837C35.1885 5.64837 35.0146 5.64333 34.8408 5.64964C34.5198 5.65972 34.2827 5.4051 34.2352 5.10888C34.2267 5.05972 34.2231 5.0093 34.2231 4.95888C34.2219 4.58577 34.2207 4.2114 34.2231 3.83829C34.2243 3.63157 34.29 3.45132 34.4492 3.31771C34.5538 3.22947 34.6754 3.18913 34.8092 3.18787C35.1812 3.18661 35.5545 3.18157 35.9266 3.18913C36.1929 3.19418 36.3983 3.32023 36.5321 3.56476C36.5807 3.65426 36.5977 3.75132 36.5977 3.85468C36.5965 4.22022 36.588 4.58577 36.6002 4.95006C36.6099 5.26392 36.3327 5.63451 35.9351 5.64711C35.743 5.65342 35.5533 5.64711 35.3624 5.64837Z" fill="white"/>
<path d="M5.98486 10.5592C5.98486 10.3751 5.98486 10.1898 5.98486 10.0058C5.98607 9.63648 6.23534 9.36421 6.58917 9.3579C6.96123 9.3516 7.33452 9.35286 7.70659 9.3579C8.03367 9.36295 8.29509 9.58606 8.35102 9.89614C8.3571 9.9327 8.35953 9.97051 8.35953 10.0083C8.35953 10.3739 8.35588 10.7382 8.36075 11.1037C8.36683 11.5033 8.02272 11.8348 7.66646 11.8235C7.32722 11.8134 6.98677 11.8121 6.64631 11.8235C6.25479 11.8361 5.98607 11.4882 5.98364 11.139C5.98486 10.9461 5.98486 10.7533 5.98486 10.5592Z" fill="white"/>
<path d="M0.036499 14.2803C0.0316353 14.2311 0.0231239 14.182 0.021908 14.1315C0.0206921 13.8063 0.0206921 13.4811 0.021908 13.1559C0.021908 13.103 0.0316353 13.0488 0.036499 12.9958C0.0559535 12.8093 0.133772 12.6517 0.267522 12.5244C0.381818 12.4147 0.516784 12.3555 0.673636 12.3568C1.02139 12.358 1.37035 12.3656 1.7181 12.3542C2.12179 12.3429 2.40996 12.7387 2.40509 13.0689C2.40023 13.4421 2.3978 13.8164 2.40631 14.1895C2.41239 14.4681 2.23122 14.7215 1.93818 14.7958C1.87982 14.811 1.81781 14.8185 1.75823 14.8185C1.38981 14.821 1.02139 14.8236 0.652966 14.8185C0.395193 14.8147 0.192136 14.7026 0.0790559 14.4505C0.0559535 14.3975 0.0510899 14.337 0.036499 14.2803Z" fill="white"/>
<path d="M35.3759 15.5322C35.5619 15.5322 35.7479 15.5309 35.9352 15.5322C36.0896 15.5335 36.2307 15.5826 36.3535 15.6784C36.5115 15.8007 36.5991 15.9608 36.5966 16.1725C36.593 16.5381 36.5869 16.9036 36.5979 17.2679C36.6076 17.5818 36.3243 17.9914 35.9011 17.9952C35.557 17.999 35.2129 17.9902 34.8688 17.9977C34.5053 18.0053 34.2901 17.7293 34.2366 17.4368C34.2268 17.3839 34.2232 17.3284 34.222 17.2742C34.2208 16.9049 34.222 16.5356 34.222 16.1662C34.222 16.0112 34.2572 15.8662 34.3557 15.7452C34.4688 15.6053 34.6184 15.5372 34.7922 15.5335C34.9868 15.5297 35.1813 15.5322 35.3759 15.5322Z" fill="white"/>
<path d="M35.3635 14.8196C35.1847 14.8196 35.0072 14.8208 34.8285 14.8196C34.4601 14.817 34.2266 14.5813 34.223 14.2007C34.2193 13.8225 34.2193 13.4444 34.223 13.0675C34.2254 12.8242 34.3117 12.6175 34.5026 12.4662C34.595 12.3931 34.702 12.3565 34.8187 12.3565C35.1835 12.3565 35.5471 12.354 35.9118 12.3578C36.2718 12.3616 36.5915 12.6981 36.594 13.0725C36.5964 13.4381 36.5867 13.8036 36.5964 14.1679C36.6037 14.4528 36.431 14.6696 36.2146 14.7515C36.1173 14.7881 36.0103 14.7969 35.9082 14.8196C35.9046 14.8208 35.8997 14.8196 35.896 14.8196C35.7197 14.8196 35.541 14.8196 35.3635 14.8196Z" fill="white"/>
<path d="M16.3639 4.39943C16.3639 4.20153 16.3591 4.00489 16.3652 3.80699C16.3749 3.5259 16.5439 3.30153 16.8029 3.2196C16.8673 3.19943 16.9379 3.18935 17.0059 3.18808C17.3671 3.18556 17.727 3.18808 18.0881 3.18556C18.4395 3.18304 18.7435 3.46161 18.7386 3.86371C18.735 4.22548 18.7398 4.58598 18.7374 4.94775C18.735 5.28808 18.5356 5.55405 18.2304 5.63094C18.1842 5.64228 18.1343 5.64606 18.0857 5.64606C17.7294 5.64732 17.3719 5.64732 17.0157 5.64606C16.6594 5.6448 16.3798 5.37001 16.3652 5.00321C16.3579 4.80279 16.3639 4.60111 16.3639 4.39943Z" fill="white"/>
<path d="M0.0168457 17.317C0.0180616 16.9174 0.0180616 16.5166 0.0192775 16.117C0.026573 16.0893 0.0375162 16.0615 0.0423798 16.0326C0.0837208 15.7729 0.306232 15.5435 0.621153 15.5347C1.01389 15.5246 1.40663 15.5221 1.79937 15.5347C2.20305 15.5485 2.41827 15.8788 2.40733 16.1813C2.39517 16.5456 2.3976 16.9124 2.40611 17.2767C2.41341 17.5994 2.14226 18.0065 1.71304 17.9964C1.3811 17.9889 1.04915 17.9952 0.71721 17.9952C0.376755 17.9952 0.11655 17.7733 0.0460276 17.4242C0.0375162 17.3889 0.026573 17.3523 0.0168457 17.317Z" fill="white"/>
<path d="M5.29756 10.5742C5.29756 10.7671 5.30243 10.9612 5.29635 11.154C5.29027 11.3633 5.22582 11.5498 5.06897 11.691C4.97413 11.7767 4.86227 11.8208 4.73581 11.8208C4.36253 11.8221 3.99046 11.8246 3.61717 11.8196C3.2828 11.8158 2.90465 11.4893 2.91802 11.0759C2.92897 10.7406 2.93018 10.404 2.91802 10.0675C2.90343 9.67295 3.18552 9.44732 3.46032 9.37926C3.52598 9.36287 3.5965 9.35657 3.66459 9.35657C4.0087 9.35405 4.3528 9.35909 4.69812 9.35405C5.05924 9.35026 5.28905 9.60236 5.29756 9.96791C5.30243 10.1709 5.29756 10.3725 5.29756 10.5742Z" fill="white"/>
<path d="M45.4422 13.6389C45.4422 13.8242 45.4385 14.0082 45.4434 14.1935C45.4507 14.5199 45.2318 14.8061 44.861 14.8174C44.4682 14.83 44.0755 14.8275 43.6828 14.8174C43.3691 14.8099 43.1186 14.5842 43.0724 14.2893C43.0687 14.2641 43.0663 14.2389 43.0663 14.2136C43.0663 13.8279 43.0614 13.441 43.0675 13.0552C43.0724 12.7288 43.3192 12.4326 43.628 12.367C43.6706 12.3582 43.7168 12.3557 43.7606 12.3557C44.0962 12.3544 44.433 12.3645 44.7686 12.3531C45.1066 12.3418 45.3498 12.5977 45.4191 12.8851C45.4349 12.9494 45.441 13.0174 45.4422 13.0842C45.4434 13.2695 45.4422 13.4536 45.4422 13.6389Z" fill="white"/>
<path d="M11.2547 10.5519C11.2547 10.741 11.2559 10.93 11.2547 11.1191C11.2535 11.2956 11.2073 11.4594 11.1015 11.5994C10.9957 11.7393 10.8559 11.8187 10.6844 11.8199C10.3075 11.8237 9.93057 11.8275 9.55486 11.8187C9.18279 11.8099 8.86665 11.4519 8.87638 11.1002C8.88611 10.7523 8.88976 10.4031 8.87517 10.0552C8.85936 9.6897 9.13294 9.44138 9.41381 9.37835C9.48069 9.36322 9.54999 9.35692 9.61809 9.35692C9.95368 9.3544 10.2905 9.35566 10.6261 9.35566C11.0091 9.35566 11.2486 9.59894 11.2547 9.996C11.2571 10.1813 11.2547 10.3666 11.2547 10.5519Z" fill="white"/>
<path d="M17.5443 15.5319C17.7339 15.5319 17.9248 15.5294 18.1145 15.5319C18.3942 15.5369 18.6325 15.7109 18.7067 15.9668C18.7261 16.0336 18.7346 16.1067 18.7346 16.1773C18.7371 16.5378 18.7358 16.8995 18.7358 17.26C18.7358 17.4958 18.6507 17.6924 18.4756 17.8449C18.3553 17.9483 18.2167 17.9962 18.061 17.9962C17.7169 17.9962 17.3728 17.9936 17.0287 17.9962C16.6554 18 16.3831 17.6747 16.3648 17.3432C16.3527 17.1214 16.36 16.8983 16.3587 16.6764C16.3587 16.5088 16.36 16.3411 16.3587 16.1722C16.3563 15.7512 16.6785 15.5344 16.9837 15.5319C17.1722 15.5306 17.3582 15.5319 17.5443 15.5319Z" fill="white"/>
<path d="M42.5496 10.5631C42.5496 10.7433 42.5423 10.9248 42.5508 11.1051C42.5678 11.4227 42.276 11.8046 41.882 11.8185C41.4978 11.8324 41.1124 11.8261 40.7281 11.8198C40.4777 11.816 40.26 11.6068 40.1992 11.3269C40.1834 11.2538 40.1749 11.1769 40.1749 11.1026C40.1725 10.737 40.1713 10.3715 40.1749 10.0072C40.1761 9.92902 40.1871 9.84709 40.2102 9.77272C40.2868 9.5181 40.4838 9.36432 40.7464 9.36054C41.1233 9.35549 41.5003 9.35297 41.876 9.3618C42.0863 9.36558 42.2687 9.45381 42.4098 9.62146C42.5009 9.72986 42.5508 9.85339 42.5508 9.99961C42.5484 10.1849 42.5496 10.374 42.5496 10.5631Z" fill="white"/>
<path d="M39.4891 10.5695C39.4891 10.7623 39.4915 10.9552 39.4879 11.1493C39.4842 11.3321 39.4234 11.4934 39.3019 11.6283C39.1851 11.7581 39.0417 11.8224 38.8702 11.8224C38.5176 11.8211 38.1662 11.8237 37.8136 11.8224C37.4257 11.8211 37.1169 11.5111 37.1108 11.109C37.1047 10.7485 37.1059 10.3867 37.1108 10.0262C37.1157 9.65308 37.3917 9.36821 37.7674 9.36065C38.1443 9.35182 38.52 9.35308 38.897 9.36065C39.2398 9.36695 39.4806 9.62283 39.4879 9.97955C39.4928 10.1749 39.4891 10.3716 39.4891 10.5695Z" fill="white"/>
<path d="M45.7708 15.5322C45.9569 15.5322 46.1429 15.5297 46.329 15.5335C46.5138 15.5372 46.6767 15.6053 46.808 15.7427C46.9163 15.8549 46.9722 15.991 46.9722 16.1498C46.9734 16.5318 46.9758 16.9137 46.9722 17.2956C46.9685 17.67 46.6548 17.9927 46.2937 17.9965C45.9496 18.0003 45.6055 17.9927 45.2614 17.999C44.9428 18.0053 44.6996 17.786 44.6206 17.4721C44.6048 17.4078 44.5987 17.3398 44.5975 17.273C44.595 16.9036 44.5963 16.5343 44.5963 16.165C44.5975 15.7982 44.8443 15.5372 45.1969 15.5335C45.3903 15.5297 45.5799 15.5322 45.7708 15.5322Z" fill="white"/>
<path d="M0.0192775 8.08459C0.0180616 7.68501 0.0180616 7.28416 0.0168457 6.88458C0.026573 6.84425 0.0387321 6.80391 0.0472435 6.76358C0.103175 6.49005 0.328119 6.1661 0.736665 6.1787C1.05645 6.18752 1.37745 6.18752 1.69723 6.1787C2.13618 6.1661 2.41097 6.58711 2.40611 6.9161C2.40003 7.28164 2.39638 7.64719 2.40733 8.01274C2.41827 8.37324 2.15563 8.62912 1.82734 8.64047C1.41879 8.65559 1.00903 8.65307 0.600483 8.64173C0.312312 8.63291 0.0825049 8.43249 0.0411639 8.1577C0.0375162 8.13249 0.026573 8.10854 0.0192775 8.08459Z" fill="white"/>
<path d="M0.0195312 11.1604C0.0207472 10.8012 0.0207472 10.4419 0.023179 10.0827C0.023179 10.0285 0.0329063 9.97555 0.0377699 9.92135C0.0572245 9.64404 0.285816 9.36295 0.66518 9.35791C1.0336 9.35287 1.40324 9.35287 1.77166 9.35791C2.07807 9.36169 2.32611 9.56589 2.39299 9.85959C2.40272 9.90371 2.40636 9.95034 2.40636 9.99698C2.40758 10.3714 2.40272 10.7445 2.4088 11.1188C2.41488 11.4919 2.09874 11.8335 1.73032 11.8235C1.38622 11.8146 1.0409 11.8146 0.696794 11.8235C0.369714 11.831 0.107077 11.5701 0.0487131 11.2701C0.0389858 11.2335 0.0280426 11.197 0.0195312 11.1604Z" fill="white"/>
<path d="M28.2723 13.6285C28.2723 13.4356 28.2723 13.2428 28.2723 13.0487C28.2723 12.8634 28.3379 12.7033 28.4522 12.5659C28.5653 12.4297 28.7124 12.3554 28.89 12.3566C29.2462 12.3566 29.6025 12.3554 29.9587 12.3566C30.3077 12.3579 30.6299 12.6667 30.6397 13.0285C30.6506 13.4356 30.6506 13.8428 30.6384 14.2499C30.6311 14.5146 30.4682 14.6772 30.2396 14.768C30.1582 14.8008 30.067 14.8159 29.9794 14.8171C29.611 14.8222 29.2426 14.8209 28.8742 14.8184C28.5835 14.8171 28.3598 14.6495 28.2917 14.381C28.2771 14.3255 28.2735 14.265 28.2735 14.2071C28.2711 14.0142 28.2723 13.8213 28.2723 13.6285Z" fill="white"/>
<path d="M28.2725 16.7268C28.2725 16.534 28.2773 16.3411 28.2712 16.147C28.2627 15.8445 28.4767 15.5382 28.861 15.5319C29.2415 15.5268 29.6221 15.5268 30.0027 15.5319C30.2994 15.5356 30.5571 15.7348 30.624 16.002C30.6374 16.0575 30.6423 16.118 30.6423 16.176C30.6435 16.5365 30.6337 16.8982 30.6459 17.2587C30.6568 17.6079 30.3529 18.0024 29.937 17.9949C29.6014 17.9898 29.2646 17.9936 28.929 17.9936C28.5643 17.9936 28.287 17.7138 28.2761 17.3293C28.2676 17.1302 28.2725 16.9285 28.2725 16.7268Z" fill="white"/>
<path d="M28.2728 4.40172C28.2728 4.21265 28.2715 4.02357 28.2728 3.83576C28.2764 3.44752 28.5257 3.19038 28.899 3.18786C29.2552 3.1866 29.6115 3.18534 29.9677 3.18786C30.2255 3.19038 30.4286 3.3013 30.5635 3.53197C30.617 3.62273 30.6438 3.72357 30.6426 3.83071C30.6413 4.20886 30.645 4.58575 30.6413 4.96391C30.6377 5.33575 30.3422 5.64206 29.9811 5.64584C29.6212 5.64962 29.2601 5.6408 28.9002 5.64836C28.5184 5.65592 28.2752 5.31433 28.2728 5.01685C28.2715 4.81265 28.2728 4.60718 28.2728 4.40172Z" fill="white"/>
<path d="M22.3169 10.5567C22.3169 10.3727 22.3229 10.1874 22.3156 10.0034C22.3047 9.7223 22.4932 9.37188 22.9248 9.35927C23.3005 9.34793 23.6775 9.35297 24.0544 9.35801C24.3365 9.36179 24.576 9.54078 24.6587 9.80045C24.6782 9.86221 24.6867 9.93154 24.6867 9.99835C24.6891 10.3715 24.683 10.7458 24.6891 11.1189C24.6964 11.4933 24.3705 11.8349 23.9972 11.8236C23.658 11.8135 23.3176 11.8135 22.9771 11.8236C22.5844 11.8349 22.3181 11.4807 22.3169 11.1492C22.3169 10.9513 22.3169 10.7546 22.3169 10.5567Z" fill="white"/>
<path d="M28.2721 10.562C28.2721 10.3692 28.2709 10.1763 28.2721 9.98344C28.2758 9.6242 28.5214 9.36328 28.8691 9.35949C29.2375 9.35445 29.606 9.35445 29.9744 9.35949C30.2006 9.36328 30.3915 9.45277 30.5301 9.64437C30.6006 9.74143 30.6407 9.84983 30.6407 9.97084C30.6419 10.3654 30.6468 10.7599 30.6395 11.1545C30.6334 11.5061 30.3258 11.8175 29.9853 11.8213C29.6133 11.8263 29.24 11.8263 28.8679 11.8213C28.5481 11.8175 28.2843 11.5326 28.2733 11.1797C28.2672 10.9729 28.2721 10.7675 28.2721 10.562Z" fill="white"/>
<path d="M27.578 10.5718C27.578 10.7647 27.578 10.9576 27.578 11.1517C27.578 11.308 27.5354 11.4492 27.4491 11.5765C27.3421 11.734 27.1938 11.8197 27.0065 11.821C26.6381 11.8235 26.2697 11.8235 25.9013 11.821C25.5413 11.8185 25.1887 11.463 25.207 11.0924C25.224 10.7496 25.2106 10.4042 25.2106 10.0601C25.2106 9.71092 25.3991 9.46386 25.7286 9.38445C25.7991 9.36807 25.8721 9.35924 25.945 9.35924C26.2855 9.35672 26.6247 9.35798 26.9652 9.35798C27.347 9.35924 27.5768 9.59748 27.578 9.99327C27.5792 10.1861 27.578 10.379 27.578 10.5718Z" fill="white"/>
<path d="M58.6326 16.5252C58.7894 16.5252 58.928 16.5252 59.0958 16.5252C58.6824 17.8449 58.2775 19.1458 57.8677 20.458C57.689 20.458 57.5163 20.458 57.3242 20.458C57.0397 19.3815 56.754 18.3063 56.4695 17.2298C56.4512 17.2323 56.4318 17.2323 56.4159 17.2349C56.1278 18.3113 55.8433 19.3891 55.5551 20.4655C55.3739 20.4655 55.2146 20.4655 55.025 20.4655C54.6201 19.1647 54.2127 17.8563 53.7993 16.5277C53.9695 16.5277 54.1215 16.5277 54.2918 16.5277C54.6225 17.618 54.952 18.7122 55.2827 19.8025C55.301 19.8025 55.3168 19.805 55.3362 19.805C55.6183 18.7147 55.9004 17.6231 56.1861 16.5239C56.3649 16.5239 56.5327 16.5239 56.7321 16.5239C57.0117 17.6117 57.2938 18.7084 57.5759 19.805C57.5917 19.8075 57.6075 19.8075 57.6234 19.8101C57.9638 18.7185 58.297 17.6218 58.6326 16.5252Z" fill="white"/>
<path d="M66.6184 20.4743C66.6184 19.152 66.6184 17.8512 66.6184 16.5289C66.6792 16.5239 66.7351 16.5125 66.7947 16.5125C67.202 16.5125 67.6094 16.5037 68.0179 16.5151C68.8994 16.5378 69.5548 17.076 69.7579 17.9344C69.9731 18.8546 69.6144 19.7987 68.8739 20.2159C68.7061 20.3092 68.5164 20.3848 68.328 20.4201C67.7662 20.5298 67.1984 20.4605 66.6184 20.4743ZM67.0841 20.0218C67.4732 20.0218 67.8538 20.0571 68.227 20.013C68.6696 19.9575 68.9918 19.6815 69.1754 19.2567C69.3882 18.7651 69.4016 18.2596 69.2071 17.7567C69.0393 17.3231 68.7243 17.0558 68.2878 16.9638C67.8963 16.8806 67.4963 16.9247 67.0841 16.9222C67.0841 17.9697 67.0841 18.9945 67.0841 20.0218Z" fill="white"/>
<path d="M65.8513 20.4391C65.8173 20.4618 65.8112 20.4693 65.8039 20.4693C65.399 20.5021 65.399 20.5021 65.2203 20.1353C65.0099 19.7017 64.7971 19.2681 64.5831 18.8319C64.2792 18.8319 63.9861 18.8319 63.6663 18.8319C63.6663 19.3702 63.6663 19.9084 63.6663 20.4618C63.5095 20.4618 63.3782 20.4618 63.2481 20.4618C63.2007 20.274 63.1836 16.9185 63.2323 16.5189C63.8025 16.5353 64.3776 16.4584 64.9455 16.5744C65.3455 16.6551 65.6519 16.8756 65.7735 17.3004C65.8939 17.7202 65.816 18.1097 65.5206 18.4248C65.3868 18.566 65.2069 18.6542 65.033 18.7752C65.3017 19.3198 65.5789 19.8807 65.8513 20.4391ZM63.6749 16.921C63.6749 17.4378 63.6749 17.9206 63.6749 18.4097C64.0238 18.4097 64.357 18.4185 64.6901 18.4046C64.7996 18.3996 64.9163 18.3517 65.0123 18.2912C65.292 18.1223 65.3637 17.8437 65.3346 17.5324C65.3054 17.2336 65.1351 17.0382 64.8604 16.9689C64.4713 16.8731 64.0737 16.9261 63.6749 16.921Z" fill="white"/>
<path d="M81.9718 18.4574C81.9742 18.8217 81.9207 19.1923 81.77 19.5427C81.5061 20.1477 81.0611 20.4704 80.4142 20.4704C79.7722 20.4729 79.3005 20.1641 79.0536 19.5566C78.7448 18.8028 78.7496 18.0263 79.067 17.2788C79.3199 16.6801 79.8051 16.3864 80.4252 16.3952C81.0453 16.404 81.5061 16.7179 81.7651 17.3141C81.9195 17.6696 81.9755 18.0477 81.9718 18.4574ZM81.5353 18.4486C81.4976 18.1095 81.466 17.7805 81.3408 17.4704C81.1596 17.0229 80.8483 16.8074 80.3972 16.8074C79.9412 16.8074 79.6348 17.0444 79.4804 17.4679C79.2482 18.1007 79.2482 18.746 79.4755 19.3788C79.6385 19.8313 79.9741 20.0608 80.4081 20.0633C80.8532 20.0633 81.1997 19.8263 81.348 19.3561C81.4417 19.0675 81.4745 18.7524 81.5353 18.4486Z" fill="white"/>
<path d="M73.2268 17.5917C73.0699 17.5917 72.9386 17.5917 72.8036 17.5917C72.7903 17.569 72.7696 17.5476 72.7659 17.5249C72.7185 17.1052 72.4279 16.8682 72.0169 16.848C71.7981 16.8367 71.5743 16.8619 71.3616 16.9173C71.1293 16.9779 70.9858 17.1606 70.9615 17.414C70.9372 17.6762 71.0393 17.8892 71.2655 18.0077C71.4309 18.0959 71.6096 18.1539 71.7847 18.2144C72.0619 18.3077 72.3489 18.3745 72.6212 18.4816C73.0079 18.6367 73.245 18.9203 73.2523 19.3766C73.2608 19.843 73.0505 20.177 72.6504 20.3598C72.1251 20.6005 71.5829 20.6081 71.0491 20.3736C70.615 20.1833 70.4071 19.8241 70.3669 19.33C70.5165 19.33 70.6551 19.33 70.7901 19.33C70.8035 19.3413 70.8241 19.3526 70.8241 19.3652C70.8752 19.848 71.178 20.0913 71.6254 20.1329C71.8516 20.1556 72.0887 20.1329 72.31 20.08C72.5677 20.0194 72.7465 19.8455 72.7757 19.5468C72.8048 19.2316 72.7039 19.0199 72.4109 18.8812C72.2115 18.7879 71.9926 18.7325 71.7823 18.6631C71.5366 18.58 71.2837 18.522 71.0527 18.4148C70.6101 18.2106 70.4192 17.7884 70.5092 17.3081C70.5566 17.0598 70.6794 16.8581 70.8874 16.7333C71.4917 16.3665 72.1179 16.3463 72.7331 16.6917C73.0553 16.8707 73.1915 17.1884 73.2268 17.5917Z" fill="white"/>
<path d="M60.4783 16.5203C60.6728 16.5203 60.8406 16.5203 61.0376 16.5203C61.53 17.8236 62.0261 19.1358 62.5271 20.4656C62.3544 20.4656 62.2134 20.4656 62.0395 20.4656C61.8984 20.0988 61.7513 19.7169 61.6054 19.3337C61.0303 19.3337 60.4625 19.3337 59.8849 19.3337C59.7463 19.7119 59.6077 20.085 59.4666 20.4631C59.3122 20.4631 59.1712 20.4631 58.99 20.4631C59.4897 19.1459 59.9797 17.8425 60.4783 16.5203ZM60.7737 17.0446C60.4989 17.6661 60.2545 18.2787 60.0466 18.914C60.5318 18.914 60.9768 18.914 61.4583 18.914C61.2236 18.2736 60.9975 17.661 60.7737 17.0446Z" fill="white"/>
<path d="M51.2616 19.3373C51.1181 19.7267 50.982 20.0936 50.8458 20.4667C50.6914 20.4667 50.5527 20.4667 50.3691 20.4667C50.8677 19.1469 51.3577 17.8461 51.8526 16.5314C52.0313 16.5314 52.2064 16.5314 52.4204 16.5314C52.908 17.8259 53.4065 19.1381 53.9062 20.4692C53.736 20.4692 53.5974 20.4692 53.4186 20.4692C53.28 20.1024 53.1341 19.7204 52.987 19.3373C52.4131 19.3373 51.8453 19.3373 51.2616 19.3373ZM51.4136 18.9137C51.9085 18.9137 52.3596 18.9137 52.8362 18.9137C52.5991 18.2709 52.373 17.652 52.1225 16.9776C51.8744 17.6583 51.6507 18.2709 51.4136 18.9137Z" fill="white"/>
<path d="M75.8935 17.6444C75.7476 17.6444 75.6163 17.6444 75.4862 17.6444C75.4436 17.1415 75.688 16.7217 76.1367 16.5263C76.5015 16.3663 76.8772 16.3474 77.2553 16.4595C77.873 16.6448 78.1855 17.2801 77.9958 17.9482C77.8657 18.407 77.5727 18.7486 77.2419 19.0612C77.0182 19.2705 76.7811 19.4621 76.5489 19.6637C76.448 19.752 76.347 19.8402 76.2084 19.9625C76.437 20.0318 76.6376 19.9953 76.8322 20.0016C77.045 20.0066 77.259 20.0041 77.4718 20.0041C77.6736 20.0041 77.8767 20.0041 78.0919 20.0041C78.0919 20.1389 78.0919 20.2524 78.0919 20.3847C77.2128 20.3847 76.3422 20.3847 75.4631 20.3847C75.3913 20.2058 75.4497 20.0784 75.5932 19.9625C76.0248 19.6095 76.4565 19.2579 76.8687 18.886C77.0608 18.7121 77.2334 18.5079 77.3806 18.2923C77.5824 17.9974 77.6578 17.6595 77.5593 17.2978C77.5411 17.2284 77.5192 17.1541 77.4791 17.0936C77.2553 16.7545 76.9197 16.7368 76.5756 16.7759C76.2352 16.815 76.037 16.999 75.9579 17.3255C75.9312 17.4238 75.9178 17.5259 75.8935 17.6444Z" fill="white"/>
<path d="M82.734 17.6346C82.779 16.6236 83.5706 16.3425 84.2235 16.4031C84.5773 16.4358 84.9056 16.5493 85.1184 16.872C85.3665 17.2501 85.3896 17.6585 85.2352 18.082C85.0674 18.5346 84.7451 18.8636 84.4035 19.1762C84.1712 19.3892 83.9244 19.5846 83.6873 19.7888C83.6289 19.8379 83.5754 19.8959 83.4769 19.993C84.1433 19.993 84.7476 19.993 85.3713 19.993C85.3713 20.1341 85.3713 20.2501 85.3713 20.385C84.5032 20.385 83.6289 20.385 82.7498 20.385C82.6829 20.1921 82.7498 20.0585 82.8994 19.94C83.2435 19.6665 83.5924 19.393 83.9147 19.0955C84.1785 18.8522 84.4266 18.5875 84.6503 18.3052C84.8631 18.0379 84.9093 17.7064 84.8521 17.3636C84.8071 17.085 84.66 16.8972 84.3937 16.814C84.1481 16.7396 83.9037 16.7446 83.6618 16.8253C83.4648 16.8921 83.3286 17.0346 83.2617 17.2362C83.2216 17.3573 83.2058 17.4846 83.1742 17.6333C83.038 17.6346 82.8884 17.6346 82.734 17.6346Z" fill="white"/>
<path d="M87.7679 16.3528C87.7679 17.6864 87.7679 18.9898 87.7679 20.3158C87.6159 20.3158 87.4724 20.3158 87.3046 20.3158C87.3046 19.3629 87.3046 18.4187 87.3046 17.4494C87.0225 17.4494 86.7611 17.4494 86.4814 17.4494C86.4814 17.3309 86.4814 17.2364 86.4814 17.1154C86.9605 17.1015 87.3204 16.9087 87.408 16.3528C87.5284 16.3528 87.6378 16.3528 87.7679 16.3528Z" fill="white"/>
</g>
<defs>
<clipPath id="clip0">
<rect width="91" height="21" fill="white"/>
</clipPath>
</defs>
</svg>
